<svg xmlns="http://www.w3.org/2000/svg" viewBox="0 0 200 60" width="200" height="60">
  <g>
    <!-- Flame icon -->
    <path d="M25 15 C25 10, 20 5, 20 5 S15 10, 15 15 C10 15, 5 20, 5 25 C5 35, 12 40, 20 40 C28 40, 35 35, 35 25 C35 20, 30 15, 25 15 Z" fill="#ffffff" opacity="0.9"/>
    <path d="M20 20 C20 18, 18 16, 18 16 S16 18, 16 20 C16 25, 18 28, 20 28 C22 28, 24 25, 24 20 C24 18, 22 16, 20 16 S20 18, 20 20 Z" fill="#ff9999"/>

    <!-- Circle around flame -->
    <circle cx="20" cy="25" r="22" fill="none" stroke="#ffffff" stroke-width="2"/>

    <!-- Text IBN -->
    <text x="50" y="25" font-family="Arial, sans-serif" font-size="24" font-weight="bold" fill="#ffffff">IBN</text>

    <!-- Text FILADÉLFIA -->
    <text x="50" y="42" font-family="Arial, sans-serif" font-size="12" font-weight="500" fill="#ffffff">FILADÉLFIA</text>
  </g>
</svg>